<svg
        xmlns="http://www.w3.org/2000/svg"
        width="166"
        height="26"
        viewBox="0 0 166 26"
        fill="none"
      >
        <g clipPath="url(#clip0_8_594)">
          <path
            d="M136.757 3.01346C136.723 3.53632 136.536 4.03774 136.22 4.45606C135.904 4.87437 135.472 5.19132 134.978 5.36785C134.483 5.54438 133.948 5.57277 133.438 5.4496C132.928 5.32643 132.465 5.05705 132.106 4.67458C131.747 4.29212 131.508 3.81326 131.418 3.29698C131.329 2.7807 131.392 2.24952 131.601 1.76881C131.81 1.2881 132.155 0.878872 132.594 0.591442C133.033 0.304012 133.546 0.150913 134.071 0.151062C134.807 0.176074 135.504 0.491508 136.007 1.0281C136.51 1.5647 136.78 2.27868 136.757 3.01346Z"
            fill="#E94932"
          />
          <path
            d="M9.89691 0.528122C15.6941 0.528122 18.4869 2.71307 18.4869 7.1593C18.5218 8.25913 18.2095 9.34209 17.5942 10.2551C16.9788 11.1681 16.0915 11.865 15.0578 12.2472C16.3578 12.6193 17.4957 13.415 18.29 14.5076C19.0843 15.6002 19.4894 16.9267 19.4407 18.2757C19.4407 23.2483 16.4721 25.5486 9.82531 25.5486H0V0.531394L9.89691 0.528122ZM5.58562 10.7023H8.979C11.4886 10.7023 12.7223 9.6854 12.7223 7.76363C12.8281 5.76713 11.8743 4.82494 9.61209 4.82494H5.584L5.58562 10.7023ZM9.40214 21.2534C12.0892 21.2534 13.4709 20.2787 13.4709 17.9378C13.5767 15.6392 12.1982 14.5459 9.47702 14.5459H5.58887V21.2534H9.40214Z"
            fill="white"
          />
          <path
            d="M26.1607 25.5484H20.7899V0.264801H26.1607V25.5484Z"
            fill="white"
          />
          <path
            d="M27.5099 16.6917C27.5099 11.1148 31.0432 7.38493 36.5231 7.38493C42.0029 7.38493 45.5004 11.1213 45.5004 16.6917C45.5873 17.9122 45.4132 19.1372 44.9896 20.2855C44.566 21.4337 43.9027 22.479 43.0436 23.3518C42.1845 24.2247 41.1492 24.9053 40.0065 25.3484C38.8638 25.7915 37.6398 25.9871 36.4156 25.922C30.9407 25.9237 27.5099 22.2312 27.5099 16.6917ZM40.0222 16.8411V16.5779C40.0222 13.2997 38.7495 11.529 36.4873 11.529C34.2608 11.529 32.9881 13.2997 32.9881 16.5779V16.8411C32.9881 20.0901 34.225 21.778 36.4515 21.778C38.7137 21.778 40.0222 20.0511 40.0222 16.8411Z"
            fill="white"
          />
          <path
            d="M46.8496 16.6169C46.8496 11.1164 50.3488 7.38493 55.6854 7.38493C57.5028 7.24023 59.3114 7.7551 60.7789 8.83486C62.2463 9.91463 63.2741 11.4868 63.6732 13.2624L58.7256 14.6562C58.3366 12.9602 57.5863 11.6411 55.7212 11.6411C53.5631 11.6411 52.292 13.5255 52.292 16.539V16.7648C52.292 19.8172 53.459 21.6626 55.6138 21.6626C57.6287 21.6626 58.5124 20.4572 58.8688 18.4591L63.8181 19.7035C63.462 21.5679 62.427 23.2347 60.9127 24.3827C59.3984 25.5306 57.512 26.0784 55.6171 25.9204C50.1014 25.9236 46.8496 22.3059 46.8496 16.6169Z"
            fill="white"
          />
          <path
            d="M70.2891 15.1858L75.6973 7.76345H81.5303L75.9105 14.3573L81.8135 25.5484H76.1172L72.3365 18.2382L70.2858 20.8763V25.5484H65.0208V0.264801H70.2858L70.2891 15.1858Z"
            fill="white"
          />
          <path
            d="M82.878 17.4081H88.0746C88.6052 20.3094 90.0895 21.5911 93.3429 21.5911C95.7467 21.5911 97.1236 20.454 97.1236 18.5387C97.1236 16.6933 94.6823 16.2027 91.6437 15.5237C87.8272 14.6188 83.4443 13.1876 83.4443 8.13869C83.4443 3.35293 87.3325 1.52588e-05 92.7407 1.52588e-05C98.6779 1.52588e-05 102.107 3.2035 102.602 8.55458H97.4768C97.4713 7.95932 97.3388 7.37205 97.088 6.83198C96.8371 6.2919 96.4738 5.8114 96.0222 5.42259C95.5706 5.03378 95.0411 4.7456 94.469 4.57723C93.897 4.40886 93.2956 4.36422 92.7049 4.44625C90.4784 4.44625 89.1358 5.58336 89.1358 7.42391C89.1358 9.49514 91.8569 9.87367 94.9329 10.5511C98.7153 11.3796 102.815 12.6986 102.815 17.8239C102.815 22.7981 99.2817 26 93.4845 26C86.976 25.9984 83.5143 22.457 82.878 17.4081Z"
            fill="white"
          />
          <path
            d="M109.501 10.6632C109.854 9.64729 110.527 8.77234 111.418 8.16828C112.309 7.56422 113.372 7.26325 114.449 7.31017C115.54 7.26745 116.611 7.61643 117.467 8.2938C118.323 8.97117 118.907 9.93215 119.115 11.0027C119.495 9.85769 120.247 8.87241 121.253 8.20338C122.259 7.53435 123.459 7.21994 124.664 7.31017C128.022 7.31017 130.035 9.87202 130.035 14.6578V25.5419H124.664V15.1126C124.664 12.9277 123.886 11.9107 122.331 11.9107C120.599 11.9107 119.785 13.1535 119.785 15.6032V25.55H114.414V14.9989C114.414 12.926 113.638 11.9124 112.082 11.9124C110.564 11.9124 109.537 13.0495 109.537 15.6049V25.5516H104.166V7.76181H109.504L109.501 10.6632Z"
            fill="white"
          />
          <path
            d="M131.384 7.76183H136.757V25.5468H131.384V7.76183Z"
            fill="white"
          />
          <path
            d="M144.54 25.5484C141.076 25.2836 140.404 23.5892 140.334 20.4247V11.7955H138.106V7.76342H140.334V4.2968L145.601 1.54491V7.76342H148.605V11.7955H145.567V20.1957C145.541 20.3484 145.551 20.5049 145.595 20.6532C145.64 20.8015 145.718 20.9374 145.824 21.0505C145.93 21.1635 146.061 21.2506 146.206 21.3049C146.352 21.3593 146.508 21.3794 146.662 21.3637H148.499V25.5468L144.54 25.5484Z"
            fill="white"
          />
          <path
            d="M155.255 10.7395C155.603 9.72682 156.269 8.85333 157.154 8.24915C158.04 7.64496 159.097 7.34241 160.169 7.38658C163.808 7.38658 166 9.94837 166 14.8462V25.5468H160.629V15.2231C160.629 13.0382 159.885 11.9075 158.084 11.9075C156.316 11.9075 155.257 13.4151 155.257 16.2027V25.5484H149.954V0.264801H155.257L155.255 10.7395Z"
            fill="white"
          />
        </g>
        <defs>
          <clipPath id="clip0_8_594">
            <rect width="166" height="26" fill="white" />
          </clipPath>
        </defs>
      </svg>
